<?xml version="1.0" encoding="utf-8"?>
<!-- Generator: Adobe Illustrator 16.0.0, SVG Export Plug-In . SVG Version: 6.00 Build 0)  -->
<!DOCTYPE svg PUBLIC "-//W3C//DTD SVG 1.1//EN" "http://www.w3.org/Graphics/SVG/1.1/DTD/svg11.dtd">
<svg version="1.1" id="Layer_1" xmlns="http://www.w3.org/2000/svg" xmlns:xlink="http://www.w3.org/1999/xlink" x="0px" y="0px"
	 width="80px" height="50px" viewBox="0 0 80 50" enable-background="new 0 0 80 50" xml:space="preserve">
<g>
	<path fill="#FFFFFF" d="M40,9.997c-8.272,0-15.002,6.73-15.002,15.002S31.728,40.001,40,40.001c8.271,0,15.002-6.73,15.002-15.002
		S48.271,9.997,40,9.997z M40,37.004c-6.62,0-12.004-5.386-12.004-12.005S33.38,12.995,40,12.995
		c6.619,0,12.004,5.385,12.004,12.004S46.619,37.004,40,37.004z"/>
	<path fill="#FFFFFF" d="M40,17.363c-4.211,0-7.637,3.426-7.637,7.637c0,4.21,3.426,7.637,7.637,7.637S47.637,29.21,47.637,25
		C47.637,20.789,44.211,17.363,40,17.363z M40,29.639c-2.558,0-4.64-2.081-4.64-4.639s2.082-4.64,4.64-4.64
		c2.557,0,4.639,2.082,4.639,4.64S42.557,29.639,40,29.639z"/>
	<path fill="#FFFFFF" d="M76.929,24.32C69.295,9.349,55.144,0.049,40,0.049c-15.144,0-29.295,9.3-36.928,24.271
		c-0.219,0.426-0.219,0.934,0,1.361C10.707,40.65,24.857,49.951,40,49.951c15.143,0,29.293-9.301,36.928-24.27
		C77.146,25.254,77.146,24.746,76.929,24.32z M40,46.953c-13.782,0-26.708-8.391-33.904-21.952C13.292,11.438,26.218,3.046,40,3.046
		c13.782,0,26.708,8.393,33.905,21.955C66.708,38.562,53.782,46.953,40,46.953z"/>
</g>
</svg>
