<?xml version="1.0" encoding="utf-8"?>
<!-- Generator: Adobe Illustrator 16.0.0, SVG Export Plug-In . SVG Version: 6.00 Build 0)  -->
<!DOCTYPE svg PUBLIC "-//W3C//DTD SVG 1.1//EN" "http://www.w3.org/Graphics/SVG/1.1/DTD/svg11.dtd">
<svg version="1.1" id="Layer_1" xmlns="http://www.w3.org/2000/svg" xmlns:xlink="http://www.w3.org/1999/xlink" x="0px" y="0px"
	 width="58.333px" height="50px" viewBox="0 0 58.333 50" enable-background="new 0 0 58.333 50" xml:space="preserve">
<g>
	<path fill="#FFFFFF" d="M55.629,3.177c-0.109-0.263-0.316-0.473-0.58-0.581c-0.131-0.055-0.271-0.083-0.41-0.083H41.963
		c-0.594,0-1.074,0.48-1.074,1.074s0.48,1.074,1.074,1.074h10.082l-19.83,19.831c-0.42,0.42-0.42,1.1,0,1.519
		c0.209,0.21,0.484,0.314,0.76,0.314s0.549-0.104,0.76-0.314l19.83-19.831v10.082c0,0.594,0.48,1.074,1.074,1.074
		s1.074-0.48,1.074-1.074V3.587C55.713,3.448,55.684,3.308,55.629,3.177z"/>
	<path fill="#FFFFFF" d="M47.984,16.102c-0.594,0-1.074,0.48-1.074,1.074v28.162H4.769V11.52h36.354c0.594,0,1.074-0.48,1.074-1.074
		s-0.48-1.074-1.074-1.074H3.695c-0.594,0-1.074,0.48-1.074,1.074v35.966c0,0.594,0.48,1.074,1.074,1.074h44.29
		c0.594,0,1.074-0.48,1.074-1.074V17.176C49.059,16.583,48.578,16.102,47.984,16.102z"/>
</g>
</svg>
