<?xml version="1.0" encoding="utf-8"?>
<!-- Generator: Adobe Illustrator 16.0.0, SVG Export Plug-In . SVG Version: 6.00 Build 0)  -->
<!DOCTYPE svg PUBLIC "-//W3C//DTD SVG 1.1//EN" "http://www.w3.org/Graphics/SVG/1.1/DTD/svg11.dtd">
<svg version="1.1" id="Layer_1" xmlns="http://www.w3.org/2000/svg" xmlns:xlink="http://www.w3.org/1999/xlink" x="0px" y="0px"
	 width="85px" height="180px" viewBox="0 0 85 180" enable-background="new 0 0 85 180" xml:space="preserve">
<path fill="#5AC5C6" d="M67,161.717H18v-144h49V161.717z M22,157.717h41v-136H22V157.717z"/>
<g>
	<path fill="#5AC5C6" d="M48.93,93.662v1.332H35.966v-1.35h9.868v-0.037l-6.356-2.664l6.356-2.647l-0.037-0.036h-9.831v-1.35H48.93
		v1.314l-6.463,2.719L48.93,93.662z"/>
	<path fill="#5AC5C6" d="M47.796,109.178v-5.383h-4.609v3.871h-1.134v-3.871h-4.952v5.51h-1.134v-6.86H48.93v6.733H47.796z"/>
	<path fill="#5AC5C6" d="M48.93,116.412v1.566l-9.687,3.943v0.054h9.687v1.351H35.84v-1.278l10.46-4.249l-0.035-0.037H35.966v-1.35
		H48.93z"/>
	<path fill="#5AC5C6" d="M48.93,137.726h-9.561c-2.449,0-3.655-1.837-3.655-3.583c0-1.404,0.792-3.602,4.375-3.602h8.84v1.351
		h-9.561c-1.873,0-2.521,1.206-2.521,2.251c0,1.656,1.224,2.232,2.683,2.232h9.398V137.726z"/>
</g>
<g>
	<rect x="32.133" y="41.523" fill="#5AC5C6" width="20.304" height="1.293"/>
	<rect x="32.133" y="48.449" fill="#5AC5C6" width="20.304" height="1.293"/>
	<rect x="32.133" y="34.598" fill="#5AC5C6" width="20.304" height="1.292"/>
</g>
<path fill="#5AC5C6" d="M20.51,21.223V66.71h43.938V21.223H20.51z M42.53,62.697c-11.271,0-20.41-9.138-20.41-20.41
	c0-11.272,9.139-20.409,20.41-20.409c11.271,0,20.41,9.137,20.41,20.409C62.94,53.56,53.801,62.697,42.53,62.697z"/>
<rect x="-230" y="-60.5" fill="#E6E6E6" width="114.5" height="106"/>
<rect x="155.5" y="-19.5" fill="#5AC5C6" width="125" height="57"/>
</svg>
